<svg xmlns="http://www.w3.org/2000/svg" width="1024" height="1024" viewBox="0 0 512 512">
  <defs>
    <radialGradient id="bg" cx="50%" cy="40%" r="72%">
      <stop offset="0%" stop-color="#1d160d" />
      <stop offset="55%" stop-color="#0c0a08" />
      <stop offset="100%" stop-color="#070605" />
    </radialGradient>
    <linearGradient id="gold" x1="0" y1="0" x2="0" y2="1">
      <stop offset="0%" stop-color="#e6cb90" />
      <stop offset="55%" stop-color="#cdab74" />
      <stop offset="100%" stop-color="#b08f5f" />
    </linearGradient>
  </defs>
  <rect width="512" height="512" fill="url(#bg)" />
  <path
    d="M256,104 C256,104,124,212,124,300 C124,353,162,386,206,371 C214,368,222,361,228,352 C228,390,213,418,178,438 L334,438 C299,418,284,390,284,352 C290,361,298,368,306,371 C350,386,388,353,388,300 C388,212,256,104,256,104 Z"
    fill="url(#gold)"
  />
</svg>
